<svg width="396" height="119" viewBox="0 0 396 119" fill="none" xmlns="http://www.w3.org/2000/svg">
<path d="M384.104 78.6751C381.839 78.6751 379.897 78.1126 378.277 76.9876C376.657 75.8476 375.404 74.3101 374.519 72.3751C373.649 70.4401 373.214 68.2576 373.214 65.8276C373.214 63.3976 373.649 61.2151 374.519 59.2801C375.404 57.3451 376.657 55.8226 378.277 54.7126C379.897 53.5876 381.832 53.0251 384.082 53.0251C386.377 53.0251 388.304 53.5801 389.864 54.6901C391.424 55.8001 392.602 57.3226 393.397 59.2576C394.207 61.1926 394.612 63.3826 394.612 65.8276C394.612 68.2426 394.207 70.4251 393.397 72.3751C392.602 74.3101 391.424 75.8476 389.864 76.9876C388.304 78.1126 386.384 78.6751 384.104 78.6751ZM384.599 75.0076C386.234 75.0076 387.577 74.6176 388.627 73.8376C389.677 73.0426 390.449 71.9551 390.944 70.5751C391.454 69.1801 391.709 67.5976 391.709 65.8276C391.709 64.0276 391.454 62.4451 390.944 61.0801C390.449 59.7001 389.684 58.6276 388.649 57.8626C387.614 57.0826 386.302 56.6926 384.712 56.6926C383.062 56.6926 381.697 57.0976 380.617 57.9076C379.552 58.7176 378.757 59.8126 378.232 61.1926C377.722 62.5726 377.467 64.1176 377.467 65.8276C377.467 67.5526 377.729 69.1126 378.254 70.5076C378.779 71.8876 379.567 72.9826 380.617 73.7926C381.682 74.6026 383.009 75.0076 384.599 75.0076ZM391.709 78.0001V60.1126H391.259V45.6001H395.287V78.0001H391.709Z" fill="white"/>
<path d="M358.216 78V53.7001H361.794V59.5726L361.209 58.8076C361.494 58.0576 361.861 57.3676 362.311 56.7376C362.776 56.1076 363.294 55.5901 363.864 55.1851C364.494 54.6751 365.206 54.2851 366.001 54.0151C366.796 53.7451 367.606 53.5876 368.431 53.5426C369.256 53.4826 370.029 53.5351 370.749 53.7001V57.4576C369.909 57.2326 368.986 57.1726 367.981 57.2776C366.976 57.3826 366.046 57.7501 365.191 58.3801C364.411 58.9351 363.804 59.6101 363.369 60.4051C362.949 61.2001 362.656 62.0626 362.491 62.9926C362.326 63.9076 362.244 64.845 362.244 65.805V78H358.216Z" fill="white"/>
<path d="M339.811 78.675C337.996 78.675 336.474 78.3451 335.244 77.6851C334.029 77.0101 333.106 76.125 332.476 75.03C331.861 73.935 331.554 72.735 331.554 71.43C331.554 70.155 331.794 69.0526 332.274 68.1226C332.769 67.1776 333.459 66.3975 334.344 65.7825C335.229 65.1525 336.286 64.6575 337.516 64.2975C338.671 63.9825 339.961 63.7125 341.386 63.4875C342.826 63.2475 344.281 63.0301 345.751 62.8351C347.221 62.6401 348.594 62.4526 349.869 62.2726L348.429 63.1051C348.474 60.9451 348.039 59.3476 347.124 58.3126C346.224 57.2776 344.664 56.7601 342.444 56.7601C340.974 56.7601 339.684 57.0976 338.574 57.7726C337.479 58.4326 336.706 59.5126 336.256 61.0126L332.454 59.8651C333.039 57.7351 334.171 56.0626 335.851 54.8476C337.531 53.6326 339.744 53.0251 342.489 53.0251C344.694 53.0251 346.584 53.4226 348.159 54.2176C349.749 54.9976 350.889 56.1826 351.579 57.7726C351.924 58.5226 352.141 59.3401 352.231 60.2251C352.321 61.0951 352.366 62.0101 352.366 62.9701V78H348.811V72.1725L349.644 72.7125C348.729 74.6775 347.446 76.1625 345.796 77.1675C344.161 78.1725 342.166 78.675 339.811 78.675ZM340.419 75.3225C341.859 75.3225 343.104 75.0675 344.154 74.5575C345.219 74.0325 346.074 73.35 346.719 72.51C347.364 71.655 347.784 70.725 347.979 69.72C348.204 68.97 348.324 68.1375 348.339 67.2225C348.369 66.2925 348.384 65.58 348.384 65.085L349.779 65.6925C348.474 65.8725 347.191 66.045 345.931 66.21C344.671 66.375 343.479 66.555 342.354 66.75C341.229 66.93 340.216 67.1475 339.316 67.4025C338.656 67.6125 338.034 67.8825 337.449 68.2125C336.879 68.5425 336.414 68.97 336.054 69.495C335.709 70.005 335.536 70.6425 335.536 71.4075C335.536 72.0675 335.701 72.6975 336.031 73.2975C336.376 73.8975 336.901 74.385 337.606 74.76C338.326 75.135 339.264 75.3225 340.419 75.3225Z" fill="white"/>
<path d="M314.927 78.6301C313.367 78.6301 312.024 78.3826 310.899 77.8876C309.789 77.3926 308.867 76.7326 308.132 75.9076C307.397 75.0826 306.819 74.1676 306.399 73.1626C305.979 72.1576 305.679 71.1301 305.499 70.0801C305.334 69.0301 305.252 68.0476 305.252 67.1326V53.7001H309.302V65.8726C309.302 67.0126 309.407 68.1151 309.617 69.1801C309.827 70.2451 310.179 71.2051 310.674 72.0601C311.184 72.9151 311.859 73.5901 312.699 74.0851C313.554 74.5801 314.619 74.8276 315.894 74.8276C316.899 74.8276 317.814 74.6551 318.639 74.3101C319.464 73.9651 320.169 73.4551 320.754 72.7801C321.339 72.0901 321.789 71.2201 322.104 70.1701C322.419 69.1201 322.577 67.8976 322.577 66.5026L325.209 67.3126C325.209 69.6526 324.782 71.6701 323.927 73.3651C323.087 75.0601 321.894 76.3651 320.349 77.2801C318.819 78.1801 317.012 78.6301 314.927 78.6301ZM323.027 78.0001V71.4976H322.577V53.7001H326.604V78.0001H323.027Z" fill="white"/>
<path d="M286.695 78.6751C284.475 78.6751 282.45 78.2851 280.62 77.5051C278.79 76.7251 277.215 75.6076 275.895 74.1526C274.575 72.6826 273.555 70.9126 272.835 68.8426C272.13 66.7576 271.778 64.4101 271.778 61.8001C271.778 58.3501 272.393 55.3651 273.623 52.8451C274.853 50.3251 276.585 48.3826 278.82 47.0176C281.055 45.6376 283.68 44.9476 286.695 44.9476C290.325 44.9476 293.25 45.7951 295.47 47.4901C297.69 49.1701 299.22 51.4726 300.06 54.3976L296.01 55.2301C295.335 53.2651 294.225 51.6976 292.68 50.5276C291.135 49.3576 289.208 48.7726 286.898 48.7726C284.483 48.7576 282.473 49.2976 280.868 50.3926C279.278 51.4726 278.078 52.9951 277.268 54.9601C276.458 56.9251 276.045 59.2051 276.03 61.8001C276.015 64.3801 276.413 66.6451 277.223 68.5951C278.033 70.5451 279.24 72.0751 280.845 73.1851C282.465 74.2801 284.483 74.8351 286.898 74.8501C288.983 74.8651 290.738 74.4676 292.163 73.6576C293.588 72.8476 294.69 71.6776 295.47 70.1476C296.25 68.6176 296.723 66.7801 296.888 64.6351H290.003V61.3276H301.118C301.163 61.6276 301.185 61.9876 301.185 62.4076C301.2 62.8126 301.208 63.0901 301.208 63.2401C301.208 66.1951 300.653 68.8426 299.543 71.1826C298.448 73.5076 296.82 75.3376 294.66 76.6726C292.515 78.0076 289.86 78.6751 286.695 78.6751Z" fill="white"/>
<path d="M246.595 78V53.7001H251.388V59.6176L250.803 58.8526C251.103 58.0426 251.5 57.3076 251.995 56.6476C252.505 55.9726 253.113 55.4176 253.818 54.9826C254.418 54.5776 255.078 54.2626 255.798 54.0376C256.533 53.7976 257.283 53.6551 258.048 53.6101C258.813 53.5501 259.555 53.5801 260.275 53.7001V58.7626C259.555 58.5526 258.723 58.4851 257.778 58.5601C256.848 58.6351 256.008 58.8976 255.258 59.3476C254.508 59.7526 253.893 60.2701 253.413 60.9001C252.948 61.5301 252.603 62.2501 252.378 63.0601C252.153 63.8551 252.04 64.7175 252.04 65.6475V78H246.595Z" fill="white"/>
<path d="M230.573 78.675C228.113 78.675 225.953 78.1425 224.093 77.0775C222.233 76.0125 220.778 74.5351 219.728 72.6451C218.693 70.755 218.175 68.58 218.175 66.12C218.175 63.465 218.685 61.1626 219.705 59.2126C220.725 57.2476 222.142 55.7251 223.957 54.6451C225.772 53.5651 227.873 53.0251 230.258 53.0251C232.778 53.0251 234.915 53.6176 236.67 54.8026C238.44 55.9726 239.752 57.6301 240.607 59.7751C241.462 61.9201 241.785 64.4475 241.575 67.3575H236.198V65.3775C236.183 62.7375 235.717 60.8101 234.802 59.5951C233.887 58.3801 232.447 57.7726 230.482 57.7726C228.262 57.7726 226.613 58.4626 225.533 59.8426C224.453 61.2076 223.913 63.21 223.913 65.85C223.913 68.31 224.453 70.215 225.533 71.565C226.613 72.915 228.188 73.59 230.258 73.59C231.593 73.59 232.74 73.2975 233.7 72.7125C234.675 72.1125 235.425 71.25 235.95 70.125L241.305 71.745C240.375 73.935 238.935 75.6375 236.985 76.8525C235.05 78.0675 232.913 78.675 230.573 78.675ZM222.202 67.3575V63.2626H238.92V67.3575H222.202Z" fill="white"/>
<path d="M207.363 78V44.9251H212.785V78H207.363Z" fill="white"/>
<path d="M194.75 78V44.9251H200.173V78H194.75Z" fill="white"/>
<path d="M175.168 78.675C173.413 78.675 171.928 78.3451 170.713 77.6851C169.498 77.0101 168.575 76.1175 167.945 75.0075C167.33 73.8975 167.023 72.675 167.023 71.34C167.023 70.17 167.218 69.12 167.608 68.19C167.998 67.245 168.598 66.435 169.408 65.76C170.218 65.07 171.268 64.5075 172.558 64.0725C173.533 63.7575 174.673 63.4726 175.978 63.2176C177.298 62.9626 178.723 62.7301 180.253 62.5201C181.798 62.2951 183.41 62.0551 185.09 61.8001L183.155 62.9026C183.17 61.2226 182.795 59.9851 182.03 59.1901C181.265 58.3951 179.975 57.9976 178.16 57.9976C177.065 57.9976 176.008 58.2526 174.988 58.7626C173.968 59.2726 173.255 60.1501 172.85 61.3951L167.9 59.8426C168.5 57.7876 169.64 56.1376 171.32 54.8926C173.015 53.6476 175.295 53.0251 178.16 53.0251C180.32 53.0251 182.218 53.3776 183.853 54.0826C185.503 54.7876 186.725 55.9426 187.52 57.5476C187.955 58.4026 188.218 59.2801 188.308 60.1801C188.398 61.0651 188.443 62.0326 188.443 63.0826V78H183.695V72.735L184.483 73.59C183.388 75.345 182.105 76.635 180.635 77.46C179.18 78.27 177.358 78.675 175.168 78.675ZM176.248 74.355C177.478 74.355 178.528 74.1375 179.398 73.7025C180.268 73.2675 180.958 72.735 181.468 72.105C181.993 71.475 182.345 70.8825 182.525 70.3275C182.81 69.6375 182.968 68.85 182.998 67.965C183.043 67.065 183.065 66.3375 183.065 65.7825L184.73 66.2775C183.095 66.5325 181.693 66.7575 180.523 66.9525C179.353 67.1475 178.348 67.335 177.508 67.515C176.668 67.68 175.925 67.8675 175.28 68.0775C174.65 68.3025 174.118 68.565 173.683 68.865C173.248 69.165 172.91 69.51 172.67 69.9C172.445 70.29 172.333 70.7475 172.333 71.2725C172.333 71.8725 172.483 72.405 172.783 72.87C173.083 73.32 173.518 73.6801 174.088 73.9501C174.673 74.2201 175.393 74.355 176.248 74.355Z" fill="white"/>
<path d="M148.853 78.675C145.613 78.675 142.838 77.97 140.528 76.56C138.218 75.135 136.44 73.155 135.195 70.62C133.965 68.085 133.35 65.1451 133.35 61.8001C133.35 58.4551 133.965 55.5151 135.195 52.9801C136.44 50.4451 138.218 48.4726 140.528 47.0626C142.838 45.6376 145.613 44.9251 148.853 44.9251C152.588 44.9251 155.7 45.8626 158.19 47.7376C160.68 49.5976 162.428 52.1101 163.433 55.2751L157.965 56.7826C157.335 54.6676 156.263 53.0176 154.748 51.8326C153.233 50.6326 151.268 50.0326 148.853 50.0326C146.678 50.0326 144.863 50.5201 143.408 51.4951C141.968 52.4701 140.88 53.8426 140.145 55.6126C139.425 57.3676 139.058 59.4301 139.043 61.8001C139.043 64.1701 139.403 66.24 140.123 68.01C140.858 69.765 141.953 71.13 143.408 72.105C144.863 73.08 146.678 73.5675 148.853 73.5675C151.268 73.5675 153.233 72.9675 154.748 71.7675C156.263 70.5675 157.335 68.9175 157.965 66.8175L163.433 68.325C162.428 71.49 160.68 74.01 158.19 75.885C155.7 77.745 152.588 78.675 148.853 78.675Z" fill="white"/>
<path d="M95 14.2179V63.1859C94.9778 81.8142 85.0654 99.0251 68.9713 108.356L53.5869 117.215C50.0222 119.264 45.6425 119.264 42.0778 117.215L26.8211 108.356C10.7497 99.0091 0.847743 81.8029 0.820778 63.1859V14.2179C0.820778 13.4348 1.45832 12.7961 2.24001 12.7961C17.7238 12.8016 32.9422 8.71397 46.3468 0.955237L47.2006 0.455391C47.6385 0.205468 48.1818 0.205468 48.6198 0.455391L49.4736 0.966356C56.1539 4.82624 63.311 7.8032 70.762 9.81376C78.213 11.8131 85.8967 12.8295 93.6088 12.8295C94.3738 12.8406 94.9834 13.457 95 14.2179ZM84.8104 23.8483C84.8159 23.1207 84.2782 22.5098 83.563 22.4265C78.3296 21.9044 73.1517 20.9491 68.0792 19.5829C61.3157 17.7556 54.7628 15.2175 48.5364 12.0185C48.1372 11.8186 47.6716 11.8186 47.2724 12.0185C39.8215 15.8784 31.905 18.7443 23.7104 20.5493C19.9128 21.4157 16.0654 22.0488 12.1846 22.4376C11.475 22.532 10.9484 23.1429 10.9539 23.8594V63.1862C10.9705 78.1818 18.9426 92.0387 31.8875 99.5699L47.1726 108.401C47.3889 108.523 47.6328 108.584 47.8823 108.584C48.1262 108.584 48.3646 108.523 48.5752 108.401L63.9043 99.542C65.7171 98.4979 67.4413 97.3149 69.0712 96.0042C69.6588 95.5099 69.7531 94.6435 69.2819 94.0381C68.794 93.4661 67.9347 93.3772 67.3415 93.8382C65.8225 95.06 64.2148 96.1652 62.5294 97.1372L47.91 105.612L33.2791 97.1649C21.1825 90.1337 13.7363 77.193 13.7207 63.1869V25.0814C17.2799 24.6815 20.8169 24.0705 24.3095 23.2653C32.4977 21.4548 40.4305 18.6167 47.9098 14.8178C54.1356 17.9668 60.6718 20.4662 67.4072 22.2823C72.2248 23.6041 77.1367 24.5539 82.0991 25.1259V63.2314C82.0935 68.2965 81.0845 73.3116 79.1332 77.9882C78.8837 78.3381 78.8061 78.7879 78.9225 79.2045C79.0445 79.621 79.3438 79.9598 79.743 80.1264C80.1421 80.293 80.5967 80.2653 80.9737 80.0598C81.3507 79.8487 81.6168 79.4822 81.6889 79.0545C83.7622 74.0226 84.8267 68.6299 84.8101 63.1873L84.8104 23.8483Z" fill="white"/>
<path d="M40.063 66.6229C40.38 66.9349 47.8615 74.7001 55.3431 74.7001H55.4334C58.2 74.7001 60.6016 73.5846 62.598 71.4878C63.1418 70.8638 63.4145 70.0603 63.3242 69.2568C63.2339 68.4532 62.7805 67.7404 62.0543 67.2942L55.616 63.1441C54.4825 62.3859 52.8955 62.609 51.9886 63.6356L50.9011 64.84C50.4937 65.3316 49.7675 65.4205 49.2238 65.1085C47.4101 63.9929 43.9631 61.4935 41.1985 57.1222C40.8815 56.6307 40.9718 55.9614 41.3792 55.5152L42.6492 54.2655C43.556 53.373 43.7367 51.9455 43.0123 50.8736L39.2484 44.848C38.795 44.1787 38.1149 43.6871 37.2983 43.5983C36.4818 43.464 35.6653 43.6872 35.0773 44.2222C33.4903 45.5609 31.5862 47.8372 31.4498 51.316C31.2674 55.8249 34.1684 60.9561 40.063 66.6229Z" fill="black"/>
<path fill-rule="evenodd" clip-rule="evenodd" d="M56.8854 42.0411C60.8705 42.0411 64.1008 45.2714 64.1008 49.2565C64.1008 53.2415 60.8705 56.4718 56.8854 56.4718C52.9003 56.4718 49.67 53.2415 49.67 49.2565C49.67 45.2714 52.9003 42.0411 56.8854 42.0411ZM53.3135 49.3506C53.0469 49.056 53.07 48.6013 53.3641 48.3352C53.6587 48.0687 54.1135 48.0918 54.3795 48.3859L56.1768 50.3719L60.0605 46.3601C60.3379 46.075 60.7935 46.0687 61.0786 46.3461C61.3637 46.6235 61.37 47.0791 61.0926 47.3642L56.6759 51.9266L56.675 51.9257C56.6646 51.9366 56.6533 51.9474 56.642 51.9574C56.3478 52.2239 55.8931 52.2013 55.6266 51.9067L53.3135 49.3506Z" fill="black"/>
</svg>
